<?xml version="1.0" encoding="utf-8"?>
<!-- Generator: Adobe Illustrator 16.0.0, SVG Export Plug-In . SVG Version: 6.00 Build 0)  -->
<!DOCTYPE svg PUBLIC "-//W3C//DTD SVG 1.1//EN" "http://www.w3.org/Graphics/SVG/1.1/DTD/svg11.dtd">
<svg version="1.1" id="Layer_1" xmlns="http://www.w3.org/2000/svg" xmlns:xlink="http://www.w3.org/1999/xlink" x="0px" y="0px"
	 width="1115px" height="190px" viewBox="21.704 22 1115 190" enable-background="new 21.704 22 1115 190" xml:space="preserve">
<path fill="#74B537" d="M931.657,61.184c-3.672-3.668-7.955-6.538-12.852-8.602c-4.891-2.063-10.088-3.097-15.598-3.097
	c-5.506,0-10.709,1.033-15.604,3.097s-9.174,4.934-12.848,8.602c-3.67,3.672-6.535,7.953-8.602,12.846
	c-2.063,4.897-3.094,10.094-3.094,15.601v79.148c0,5.51,0.949,10.713,2.861,15.604c1.916,4.895,4.596,9.183,8.033,12.847
	c3.441,3.677,7.646,6.543,12.617,8.606c4.969,2.063,10.512,3.099,16.633,3.099c5.51,0,10.707-1.034,15.598-3.099
	c4.896-2.063,9.18-4.932,12.852-8.606c3.67-3.664,6.539-7.952,8.604-12.847c2.063-4.891,3.094-10.094,3.094-15.604v-7.107
	c0-1.688-0.537-2.947-1.602-3.79c-1.07-0.835-2.221-1.261-3.439-1.261h-18.355c-1.377,0-2.563,0.576-3.559,1.727
	c-0.99,1.145-1.488,2.329-1.488,3.552v6.882c0,3.215-1.148,5.971-3.441,8.26c-2.293,2.295-5.045,3.44-8.26,3.44
	c-3.211,0-5.967-1.146-8.262-3.44c-2.289-2.289-3.439-5.045-3.439-8.26V89.632c0-3.212,1.15-5.968,3.439-8.259
	c2.295-2.294,5.051-3.44,8.262-3.44c3.215,0,5.967,1.146,8.26,3.44c2.293,2.291,3.441,5.046,3.441,8.259v6.879
	c0,1.376,0.498,2.53,1.488,3.446c0.996,0.917,2.182,1.379,3.559,1.379h19.041c1.377,0,2.445-0.461,3.213-1.379
	c0.762-0.916,1.145-2.069,1.145-3.446v-6.879c0-5.507-1.031-10.704-3.094-15.601C938.196,69.137,935.327,64.857,931.657,61.184z"/>
<path fill="#74B537" d="M653.833,154.33c-0.92-2.14-2.184-4.36-3.785-6.655c-1.605-2.291-3.633-4.82-6.082-7.571l-35.33-41.063
	c-2.447-2.45-3.67-5.582-3.67-9.409c0-3.212,1.07-5.968,3.213-8.259c2.139-2.294,4.818-3.44,8.027-3.44
	c5.045,0,8.18,1.793,9.406,5.393c1.225,3.591,1.84,7.988,1.84,13.185c0,1.532,0.49,2.722,1.488,3.561
	c0.992,0.842,2.104,1.264,3.33,1.264h18.574c1.229,0,2.373-0.461,3.441-1.379c1.07-0.916,1.609-2.145,1.609-3.677v-6.648
	c0-5.507-1.027-10.704-3.098-15.601c-2.063-4.894-4.854-9.174-8.371-12.846c-3.523-3.668-7.725-6.538-12.623-8.602
	c-4.895-2.063-10.096-3.097-15.6-3.097c-5.502,0-10.707,1.033-15.598,3.097c-4.9,2.069-9.104,4.945-12.621,8.624
	c-3.519,3.679-6.308,7.962-8.372,12.866c-2.066,4.908-3.101,10.114-3.101,15.626c0,5.823,0.886,10.958,2.641,15.4
	c1.759,4.442,4.474,8.814,8.145,13.1l35.332,40.906c1.381,1.683,2.6,3.369,3.67,5.06c1.066,1.688,1.607,3.295,1.607,4.828
	c0,3.369-1.146,6.166-3.443,8.389c-2.293,2.226-5.045,3.33-8.26,3.33c-2.904,0-5.121-0.577-6.648-1.735
	c-1.531-1.159-2.641-2.664-3.33-4.515c-0.689-1.858-1.145-3.789-1.377-5.797c-0.229-2.004-0.459-3.936-0.688-5.787
	c-0.229-1.85-0.656-3.363-1.26-4.518c-0.615-1.158-1.688-1.74-3.215-1.74h-18.813c-0.921,0-1.947,0.389-3.099,1.15
	c-1.145,0.768-1.719,1.982-1.719,3.669v7.34c0,5.511,1.032,10.712,3.097,15.603c2.064,4.896,4.938,9.184,8.603,12.848
	c3.672,3.676,7.949,6.58,12.852,8.723c4.891,2.139,10.096,3.207,15.598,3.207c5.656,0,10.938-1.108,15.83-3.322
	c4.896-2.221,9.139-5.196,12.732-8.952c3.594-3.742,6.428-8.029,8.49-12.839c2.064-4.825,3.098-9.906,3.098-15.266
	c0-2.9-0.195-5.506-0.572-7.799C655.397,158.685,654.75,156.475,653.833,154.33z"/>
<path fill="#74B537" d="M821.764,51.78H799.51c-1.682,0.148-2.904,1.297-3.67,3.441l-29.135,146.603
	c0,0.308-0.045,0.492-0.117,0.567c-0.078,0.08-0.115,0.194-0.115,0.346c0,1.226,0.459,2.179,1.379,2.867
	c0.92,0.692,1.908,1.026,2.982,1.026h20.189c2.137-0.299,3.439-1.368,3.896-3.211l2.752-15.596h25.467l2.984,15.596
	c0.152,1.074,0.727,1.882,1.721,2.414c0.992,0.537,1.871,0.797,2.635,0.797h19.273c3.363-0.145,5.047-1.75,5.047-4.809
	l-29.598-146.6C824.438,53.382,823.29,52.233,821.764,51.78z M802.952,159.836l7.57-40.604l7.568,40.604H802.952z"/>
<path fill="#74B537" d="M750.528,53.039c-1.146-0.835-2.256-1.258-3.322-1.258h-18.816c-1.527,0-2.674,0.453-3.438,1.371
	c-0.766,0.921-1.148,1.99-1.148,3.213v66.762L700.17,55.446v-0.453c-0.459-0.92-1.184-1.686-2.178-2.299
	c-0.994-0.61-1.875-0.914-2.635-0.914h-18.813c-1.537,0-2.68,0.453-3.445,1.371c-0.768,0.921-1.148,1.99-1.148,3.213V202.05
	c0,3.063,1.529,4.583,4.594,4.583h18.813c3.359,0,5.043-1.521,5.043-4.583v-65.845l22.713,65.383
	c0.611,1.535,1.186,2.753,1.725,3.676c0.535,0.92,1.721,1.369,3.553,1.369h18.814c3.361,0,5.045-1.521,5.045-4.583V56.364
	C752.25,54.993,751.676,53.883,750.528,53.039z"/>
<path fill="#74B537" d="M1008.053,124.97l30.51-67.454c0-0.311,0.037-0.574,0.119-0.806c0.074-0.231,0.115-0.419,0.115-0.574
	c0-0.149,0.072-0.304,0.225-0.459c0-1.221-0.381-2.18-1.148-2.87c-0.762-0.683-1.684-1.027-2.752-1.027h-22.252
	c-1.988,0-3.289,0.683-3.898,2.064l-21.563,47.714V56.364c0-1.223-0.502-2.292-1.496-3.213c-0.994-0.918-2.023-1.371-3.096-1.371
	h-19.734c-1.221,0-2.213,0.492-2.977,1.486c-0.771,1-1.15,2.03-1.15,3.098V202.05c0,3.063,1.375,4.583,4.127,4.583h19.734
	c1.525,0,2.676-0.449,3.439-1.369c0.766-0.923,1.15-1.991,1.15-3.214v-31.205l5.039-11.236l20.191,44.964
	c0.465,0.916,1.115,1.491,1.951,1.727c0.838,0.23,1.492,0.335,1.949,0.335h20.418c1.686,0,3.023-0.449,4.018-1.369
	c0.99-0.923,1.492-1.991,1.492-3.214c0,0.156-0.156-0.537-0.461-2.063L1008.053,124.97z"/>
<path fill="#74B537" d="M1131.25,154.33c-0.922-2.14-2.182-4.36-3.787-6.655c-1.604-2.291-3.635-4.82-6.08-7.571l-35.334-41.063
	c-2.443-2.45-3.664-5.582-3.664-9.409c0-3.212,1.066-5.968,3.211-8.259c2.141-2.294,4.816-3.44,8.029-3.44
	c5.043,0,8.18,1.793,9.404,5.393c1.219,3.591,1.838,7.988,1.838,13.185c0,1.532,0.498,2.722,1.49,3.561
	c0.992,0.842,2.104,1.264,3.322,1.264h18.586c1.223,0,2.371-0.461,3.443-1.379c1.068-0.916,1.605-2.145,1.605-3.677v-6.648
	c0-5.507-1.031-10.704-3.098-15.601c-2.063-4.894-4.859-9.174-8.375-12.846c-3.521-3.668-7.729-6.538-12.619-8.602
	c-4.896-2.063-10.092-3.097-15.6-3.097s-10.709,1.033-15.604,3.097c-4.898,2.069-9.104,4.945-12.617,8.624
	c-3.521,3.679-6.309,7.962-8.375,12.866c-2.063,4.908-3.094,10.114-3.094,15.626c0,5.823,0.879,10.958,2.635,15.4
	c1.762,4.442,4.479,8.814,8.146,13.1l35.33,40.906c1.373,1.683,2.6,3.369,3.672,5.06c1.063,1.688,1.607,3.295,1.607,4.828
	c0,3.369-1.152,6.166-3.443,8.389c-2.291,2.226-5.047,3.33-8.258,3.33c-2.904,0-5.133-0.577-6.658-1.735
	c-1.529-1.159-2.633-2.664-3.324-4.515c-0.688-1.858-1.145-3.789-1.379-5.797c-0.229-2.004-0.457-3.936-0.686-5.787
	c-0.23-1.85-0.652-3.363-1.262-4.518c-0.613-1.158-1.688-1.74-3.215-1.74h-18.811c-0.914,0-1.947,0.389-3.096,1.15
	c-1.148,0.768-1.725,1.982-1.725,3.669v7.34c0,5.511,1.031,10.712,3.098,15.603c2.066,4.896,4.936,9.184,8.605,12.848
	c3.67,3.676,7.947,6.58,12.846,8.723c4.895,2.139,10.096,3.207,15.604,3.207c5.658,0,10.932-1.108,15.83-3.322
	c4.893-2.221,9.137-5.196,12.729-8.952c3.592-3.742,6.43-8.029,8.492-12.839c2.064-4.825,3.1-9.906,3.1-15.266
	c0-2.9-0.197-5.506-0.574-7.799C1132.817,158.685,1132.167,156.475,1131.25,154.33z"/>
<path fill="#74B537" d="M409.131,50.356c-1.032-0.63-1.933-0.948-2.723-0.948h-19.404c-1.581,0-2.766,0.477-3.554,1.421
	c-0.792,0.945-1.185,2.053-1.185,3.313v150.286c0,3.156,1.576,4.73,4.737,4.73h19.404c3.47,0,5.205-1.574,5.205-4.73v-67.926
	l23.434,67.451c0.623,1.58,1.217,2.842,1.771,3.785c0.551,0.948,1.777,1.42,3.669,1.42h19.407c3.47,0,5.205-1.574,5.205-4.73V54.142
	c0-1.418-0.594-2.561-1.771-3.432c-1.185-0.865-2.332-1.302-3.434-1.302h-19.407c-1.575,0-2.763,0.477-3.551,1.421
	c-0.791,0.945-1.18,2.053-1.18,3.313v68.87l-24.381-69.814v-0.473C410.903,51.774,410.157,50.989,409.131,50.356z"/>
<path fill="#74B537" d="M360.733,209.16c3.468,0,5.206-1.576,5.206-4.731V54.142c0-1.418-0.593-2.561-1.776-3.432
	c-1.186-0.865-2.331-1.302-3.43-1.302h-19.409c-1.58,0-2.762,0.477-3.548,1.421c-0.794,0.945-1.187,2.053-1.187,3.313v150.286
	c0,3.156,1.576,4.73,4.733,4.73h19.41V209.16z"/>
<path fill="#74B537" d="M294.936,209.16h19.408c3.469,0,5.207-1.576,5.207-4.731V54.142c0-1.418-0.594-2.561-1.775-3.432
	c-1.185-0.865-2.327-1.302-3.432-1.302h-24.143c-0.792,0-1.655,0.237-2.603,0.709c-0.945,0.475-1.58,1.343-1.896,2.606
	l-20.825,75.021l-20.829-75.021c-0.471-2.208-1.813-3.315-4.019-3.315H214.94c-1.579,0-2.761,0.477-3.553,1.421
	c-0.79,0.945-1.183,2.053-1.183,3.313v150.286c0,3.156,1.575,4.73,4.735,4.73h19.406c3.467,0,5.204-1.574,5.204-4.73v-72.659
	l12.547,54.437c0.315,0.947,0.747,1.772,1.302,2.484c0.55,0.709,1.379,1.064,2.484,1.064h18.225c0.946,0,1.691-0.355,2.247-1.064
	c0.549-0.712,0.983-1.537,1.302-2.484l12.542-53.727v71.949C290.202,207.584,291.779,209.16,294.936,209.16z"/>
<path fill="#74B537" d="M486.405,209.16h36.209c5.68,0,11.043-1.064,16.093-3.192c5.047-2.132,9.466-5.091,13.254-8.877
	c3.789-3.786,6.746-8.199,8.875-13.253c2.131-5.049,3.195-10.412,3.195-16.094V90.825c0-6.309-1.064-12.03-3.195-17.16
	c-2.129-5.123-5.086-9.464-8.875-13.016c-3.788-3.55-8.207-6.305-13.254-8.281c-5.05-1.974-10.413-2.96-16.093-2.96h-36.209
	c-3.474,0-5.207,1.737-5.207,5.207v150.284c0,2.058,0.594,3.274,1.773,3.669C484.155,208.967,485.297,209.16,486.405,209.16z
	 M510.544,78.757h12.069c3.313,0,6.151,1.182,8.521,3.548c2.366,2.369,3.552,5.208,3.552,8.521v76.918
	c0,3.313-1.186,6.151-3.552,8.521c-2.368,2.364-5.206,3.549-8.521,3.549h-12.069V78.757L510.544,78.757z"/>
<path fill="#74B537" d="M151.579,71.94c-6.506-10.259-14.868-16.406-24.217-19.255c-7.286-13.309-19.547-18.449-24.664-20.367
	c0.25-3.868-2.343-6.438-6.318-7.268c-5.755-1.202-8.607,2.924-7.6,7.84c0.843,4.125,3.831,7.016,8.037,6.827
	c1.304-0.059,4.063-2.034,5.032-4.35c7.859,3.998,14.387,8.785,15.941,15.541c-9.081-0.684-18.751,1.187-28.347,5.005
	c-9.541,3.797-18.304,10.92-24.072,20.835c-6.946-2.253-14.804-2.533-23.624-1.493c0.699-4.663-2.81-6.843-5.112-7.317
	c-3.071-0.631-6.725,0.536-9.374,6.198c-1.906,4.076-1.068,9.583,2.831,10.74c7.195,2.135,10.867-5.417,10.991-5.872
	c5.919-0.342,14.159,0.229,20.867,4.87c-7.156,18.533-4.649,44.458,17.724,75.347c1.746,2.152,3.765,4.708,4.84,5.648
	c0,0-6.452-1.205-9.504-3.031c-10.154,5.502-24.389,12.746-45.736,36.342c-5.343,5.904-8.414,9.186,4.217,10.121
	c15.182,1.125,90.532,1.688,119.491-2.53c21.234-3.093,24.179-24.461,24.179-24.461C186.162,135.764,163.783,91.185,151.579,71.94z
	 M107.921,118.098c-3.31,1.527-10.041,0.995-11.435-4.875c-1.354-5.711,0.495-10.054,5.454-11.508
	c4.378-1.283,10.13,0.185,11.749,5.542C115.31,112.615,113.094,115.71,107.921,118.098z M138.281,125.5
	c-4.71,2.143-7.856,0.666-9.762-1.263l13.303-5.009C143.337,123.18,141.802,123.901,138.281,125.5z M146.644,101.478
	c-3.3,1.174-6.636,0.92-8.394-4.025s0.166-8.69,3.425-9.944c3.27-1.257,7.435-0.684,9.192,4.262
	C152.624,96.716,149.943,100.305,146.644,101.478z"/>
</svg>
