<?xml version="1.0" encoding="utf-8"?>
<!-- Generator: Adobe Illustrator 16.0.0, SVG Export Plug-In . SVG Version: 6.00 Build 0)  -->
<!DOCTYPE svg PUBLIC "-//W3C//DTD SVG 1.1//EN" "http://www.w3.org/Graphics/SVG/1.1/DTD/svg11.dtd">
<svg version="1.1" id="Layer_1" xmlns="http://www.w3.org/2000/svg" xmlns:xlink="http://www.w3.org/1999/xlink" x="0px" y="0px"
	 width="840px" height="85px" viewBox="-0.875 0 840 85" enable-background="new -0.875 0 840 85" xml:space="preserve">
<g>
	<path fill="#FFFFFF" stroke="#FFFFFF" stroke-miterlimit="10" d="M1.008,0.92h74.273c0,0,0,36.487,0,37.131
		c-0.502,30.268-34.419,46.176-38.686,46.028C32.157,83.928,0.907,68.361,1,37.894C1.002,37.345,1.008,0.92,1.008,0.92z"/>
	<path fill="#FFFFFF" d="M2.799,2.894h70.738c0,0,0,34.75,0,35.363c-0.479,28.824-32.782,43.978-36.846,43.837
		c-4.226-0.146-33.988-14.972-33.9-43.988C2.793,37.585,2.799,2.894,2.799,2.894z"/>
	<path fill="#95001A" d="M2.792,24.385C2.894,24.487,2.796,2.899,2.796,2.899h70.686c0,0,0,11.577,0,21.486H2.792z"/>
	<path fill="#01256E" d="M6.753,55.838c2.719,5.715,6.081,10.316,10.799,14.23l20.582-20.811l19.813,20.32
		c4.084-3.732,8.062-8.258,10.913-13.613l-30.749-29.58L6.894,55.898L6.753,55.838z"/>
	<line fill="none" stroke="#01256E" stroke-width="0.504" stroke-miterlimit="10" x1="2.792" y1="24.532" x2="73.478" y2="24.521"/>
	<path fill="#FFFFFF" stroke="#01256E" stroke-width="0.5045" stroke-miterlimit="3.8636" d="M55.77,8.239h1.924
		c1.411-0.322,1.925-1.141,3.37-1.141c1.041,0,1.53,0.691,2.295,0.691c0.646,0,1.637-0.736,2.724-0.736
		c1.112,0,1.662,0.668,2.392,0.979c0.646,0.275,1.493,0.262,2.39,0.262c-0.024,0.645,0,1.027,0,1.568
		c0,0.551,0.741,0.334,0.741,1.231c0,0.944-0.957,0.76-0.957,1.14l-0.036,3.512c0.048,0.438,0.932,0.494,0.932,1.162
		c0,0.99-0.985,0.647-0.92,1.428c0.048,0.576,0,1.796,0,1.796c-1.9,0-14.122,0.112-14.719,0.088c0.036-1.3,0.238-1.224,0.283-1.851
		c0.036-0.506-1.099-0.816-1.099-1.668c0-0.588,0.681-0.553,0.74-1.105v-3.5c-0.035-0.461-1.063-0.688-1.028-1.346
		c0.043-0.785,0.957-0.686,0.957-1.211C55.759,9.31,55.783,8.458,55.77,8.239z"/>
	<path fill="none" stroke="#01256E" stroke-width="0.504" stroke-miterlimit="10" d="M57.337,8.297c0,0,0.024,7.827,0,9.67
		c0,0,11.401,0.022,11.902-0.022c0-2.084-0.011-9.705-0.011-9.705"/>
	<line fill="none" stroke="#01256E" stroke-width="0.504" stroke-miterlimit="10" x1="63.3" y1="7.813" x2="63.3" y2="17.989"/>
	<path fill="#01256E" stroke="#01256E" stroke-width="0.504" stroke-miterlimit="3.8636" d="M63.48,16.735
		c0.502,0.021,1.423,0.36,2.318,0.633c1.158,0.351,2.388,0.104,3.298,0.287c0.287,0.058-5.616,0.104-5.616,0.104
		C63.503,16.618,63.48,16.735,63.48,16.735z"/>
	<g>
		
			<ellipse fill="#01256E" stroke="#01256E" stroke-width="0.504" stroke-miterlimit="3.8636" cx="63.294" cy="18.243" rx="0.664" ry="0.461"/>
		<path fill="#01256E" stroke="#01256E" stroke-width="0.504" stroke-miterlimit="3.8636" d="M63.294,18.243"/>
	</g>
	<path fill="#01256E" stroke="#01256E" stroke-width="0.504" stroke-miterlimit="3.8636" d="M62.969,16.735
		c-0.501,0.021-1.423,0.36-2.318,0.633c-1.159,0.351-2.388,0.104-3.298,0.287c-0.287,0.058,5.616,0.104,5.616,0.104
		C62.945,16.618,62.969,16.735,62.969,16.735z"/>
	<path fill="#FFFFFF" stroke="#01256E" stroke-width="0.504" stroke-miterlimit="3.8636" d="M23.798,21.155
		c0.191,0.748,0.753,1.242,1.673,1.242c1.708,0,3.358-1.266,4.35-1.98c0.777-0.551,1.578-1.139,1.578-2.348l-0.143,0.461
		c0,0,1.339-1.334,4.636-0.276c0.917,0.294,4.841,2.498,5.689,2.854c0.729,0.312,3.284,2.145,7.278,1.438
		c0,0,6.098-0.839,4.735-7.118c-0.974-4.486-0.671-4.807-0.301-6.246c-0.143-0.068-3.729-0.875-3.633,4.1
		c-1.555,0.162-3.538,1.334-2.247,4.42c0.526-0.782,1.231-1.611,2.199-1.611c0.609,0,1.251,0.876,1.291,1.52
		c0.096,1.565-1.481,2.256-3.441,1.935c-0.995-0.163-1.909-1.265-3.279-2.255c0.24-0.115,0.458-0.922,0.458-1.244
		c0-0.794-0.681-1.162-1.146-1.428c0.095-0.275,0.285-0.646,0.285-0.92c0-0.634-0.896-0.588-1.242-0.83
		c0.142-0.195,0.142-0.08,0.142-0.367c0-0.922,0.143-1.428-1.721-1.381c0.156-0.91-0.036-1.498-0.669-1.75l-1.386-0.185
		c-0.86-0.161-0.002-0.446-0.796-1.212c-0.708-0.684-1.874,0-1.874,0c0-0.633-0.437-1.136-1.201-1.136
		c-0.406,0-0.908,0.034-1.195,0.184l-0.574,0.46c-0.717,0-0.896-0.645-1.721-0.645c-0.824,0-1.159,0.645-1.481,1.059
		C29.5,7.631,29.429,7.16,28.676,7.16c-0.442,0-0.573,0.473-0.765,0.69c-0.49,0.542-0.455,1.103-1.22,1.378l-0.284-0.5
		c-0.009-0.031-0.018-0.063-0.025-0.096c-1.124,0.542-3.658,6.32-3.658,7.505c0,1.129,0.98,0.634,0.98,1.843
		c0,0.713-1.052,1.232-1.052,1.842c0,0.771,0.896,1.151,1.672,1.151L23.798,21.155z"/>
	<path fill="#01256E" stroke="#01256E" stroke-width="0.504" stroke-miterlimit="3.8636" d="M26.439,16.3
		c0,0,1.243,0.479,1.243,0.736c0,0.35-0.804,0.736-1.339,1.197h-0.67c0.24-0.783,0-0.498,0-1.197
		C25.674,16.511,26.228,16.3,26.439,16.3z"/>
	<path fill="none" stroke="#01256E" stroke-width="0.504" stroke-miterlimit="10" d="M30.981,14.18
		c0.646-0.312,0.346-1.104,1.386-1.104c0.92,0,1.267,0.646,2.104,0.646c0.562,0,0.956-0.552,1.721-0.552
		c0.681,0,1.578,0.921,1.435,2.025c0,0,2.39-0.783,2.294,1.797c1.912-0.646,1.721,0.933,1.912,1.703
		c0.192,0.737,1.435,0.139,1.243,1.705"/>
	<path fill="#FFFFFF" stroke="#01256E" stroke-width="0.5045" stroke-miterlimit="3.8636" d="M5.467,8.301H7.39
		c1.411-0.322,1.925-1.14,3.37-1.14c1.04,0,1.529,0.689,2.294,0.689c0.645,0,1.637-0.736,2.725-0.736
		c1.111,0,1.662,0.668,2.39,0.979c0.646,0.277,1.494,0.262,2.39,0.262c-0.024,0.645,0,1.027,0,1.568c0,0.552,0.74,0.334,0.74,1.23
		c0,0.944-0.956,0.76-0.956,1.141l-0.036,3.511c0.048,0.438,0.932,0.495,0.932,1.162c0,0.989-0.984,0.647-0.92,1.427
		c0.048,0.576,0,1.797,0,1.797c-1.9,0-13.863,0.012-14.46-0.013c0.036-1.3-0.021-1.123,0.023-1.75c0.036-0.506-1.1-0.817-1.1-1.669
		c0-0.587,0.682-0.553,0.741-1.104v-3.5c-0.036-0.461-1.063-0.691-1.027-1.348c0.043-0.783,0.957-0.684,0.957-1.209
		C5.455,9.37,5.48,8.52,5.467,8.301z"/>
	<path fill="none" stroke="#01256E" stroke-width="0.504" stroke-miterlimit="10" d="M7.032,8.358c0,0,0.023,7.828,0,9.67
		c0,0,11.402,0.022,11.904-0.022c0-2.083-0.013-9.704-0.013-9.704"/>
	<line fill="none" stroke="#01256E" stroke-width="0.504" stroke-miterlimit="10" x1="12.996" y1="7.874" x2="12.996" y2="18.051"/>
	<path fill="#01256E" stroke="#01256E" stroke-width="0.504" stroke-miterlimit="3.8636" d="M13.175,16.797
		c0.503,0.022,1.424,0.362,2.319,0.633c1.158,0.353,2.388,0.104,3.298,0.288c0.288,0.059-5.617,0.104-5.617,0.104
		C13.199,16.681,13.175,16.797,13.175,16.797z"/>
	<g>
		
			<ellipse fill="#01256E" stroke="#01256E" stroke-width="0.504" stroke-miterlimit="3.8636" cx="12.99" cy="18.305" rx="0.664" ry="0.461"/>
		<path fill="#01256E" stroke="#01256E" stroke-width="0.504" stroke-miterlimit="3.8636" d="M12.99,18.305"/>
	</g>
	<path fill="#01256E" stroke="#01256E" stroke-width="0.504" stroke-miterlimit="3.8636" d="M12.665,16.797
		c-0.501,0.022-1.423,0.362-2.318,0.633c-1.159,0.353-2.389,0.104-3.299,0.288c-0.286,0.059,5.617,0.104,5.617,0.104
		C12.641,16.681,12.665,16.797,12.665,16.797z"/>
	<g>
		
			<ellipse fill="#FFFFFF" stroke="#01256E" stroke-width="0.5045" stroke-miterlimit="3.8636" cx="21.117" cy="53.482" rx="6.171" ry="5.946"/>
		<path fill="#FFFFFF" stroke="#01256E" stroke-width="0.5045" stroke-miterlimit="3.8636" d="M21.117,53.482"/>
	</g>
	<g>
		
			<ellipse fill="#FFFFFF" stroke="#01256E" stroke-width="0.5042" stroke-miterlimit="3.8636" cx="38.084" cy="39.204" rx="6.171" ry="5.946"/>
		<path fill="#FFFFFF" stroke="#01256E" stroke-width="0.5042" stroke-miterlimit="3.8636" d="M38.084,39.204"/>
	</g>
	<g>
		
			<ellipse fill="#FFFFFF" stroke="#01256E" stroke-width="0.5045" stroke-miterlimit="3.8636" cx="54.092" cy="53.482" rx="6.171" ry="5.946"/>
		<path fill="#FFFFFF" stroke="#01256E" stroke-width="0.5045" stroke-miterlimit="3.8636" d="M54.093,53.482"/>
	</g>
	<path fill="none" stroke="#01256E" stroke-width="0.504" stroke-miterlimit="10" d="M44.274,17.043
		c-1.577-1.735-2.968-3.774-3.208-3.875c-0.776-0.322-2.629-4.007-7.601-4.282c-1.262-0.07-6.017,0.393-6.18,1.607"/>
	<path fill="none" stroke="#01256E" stroke-width="0.504" stroke-miterlimit="10" d="M31.43,18.382
		c0.019-0.119,0.028-0.245,0.028-0.38c0-0.198-1.165-0.085-1.441-0.167c-0.191-0.057,0.512-0.34,0.39-0.34
		c0.717-0.276,2.555-1.084,1.912-1.703c-0.621-0.6-0.992-1.232-1.338-1.612c-0.467-0.507-1.016-0.783-1.866-0.783
		c-0.729,0-1.91,1.265-2.4,1.61c0.358-0.346,1.397-1.242,1.397-1.979c0-1.658-1.326-3.098-1.672-4.467"/>
	<path fill="none" stroke="#01256E" stroke-width="0.504" stroke-miterlimit="10" d="M24.283,20.903
		c1.314,0,2.055-0.093,2.678-0.414c0.681-0.356,1.912-1.129,2.198-1.797"/>
	<path fill="none" stroke="#01256E" stroke-miterlimit="10" d="M2.776,2.899h70.737c0,0,0,34.75,0,35.363
		c-0.479,28.824-32.78,43.977-36.844,43.835c-4.226-0.145-33.989-14.97-33.9-43.986C2.77,37.591,2.776,2.899,2.776,2.899z"/>
</g>
<g>
	<path fill="#01256E" d="M118.339,46.125c0,8.186,2.223,14.445,10.937,14.445c8.012,0,12.222-5.383,12.222-14.738V29.575
		c0-1.227-0.234-2.221-0.352-3.157c-0.293-2.106-2.28-2.924-5.028-3.217v-1.52h13.802v1.52c-2.807,0.293-4.738,1.111-5.029,3.217
		c-0.117,0.936-0.352,1.93-0.352,3.157v16.492c0,12.574-8.012,17.252-15.556,17.252c-12.457,0-16.316-6.316-16.316-16.9V28.991
		c0-5.438,0.234-5.146-5.029-5.79v-1.52h15.731v1.52c-5.262,0.644-5.029,0.352-5.029,5.79V46.125z"/>
	<path fill="#01256E" d="M163.248,55.307c0,5.264-0.291,5.088,4.68,5.789v1.521h-14.621v-1.521c4.971-0.701,4.68-0.525,4.68-5.789
		V39.108c0-2.691-1.814-2.456-4.68-2.456v-1.521c3.217-0.117,7.135-0.818,9.826-2.456l0.115,0.118v5.029
		c2.516-2.925,6.725-5.147,11.814-5.147c7.135,0,8.537,4.27,8.537,10.351v12.281c0,5.264-0.293,5.088,4.68,5.789v1.521h-14.621
		v-1.521c4.971-0.701,4.678-0.525,4.678-5.789v-10.76c0-3.684-0.232-8.832-6.432-8.832c-7.486,0-8.656,6.434-8.656,12.457V55.307z"
		/>
	<path fill="#01256E" d="M201.727,32.793v22.514c0,5.264-0.291,5.088,4.678,5.789v1.521h-14.621v-1.521
		c4.971-0.701,4.678-0.525,4.678-5.789V39.108c0-2.691-1.811-2.456-4.678-2.456v-1.521c3.217-0.117,7.137-0.818,9.824-2.456
		L201.727,32.793z M198.453,22.032c1.869,0,3.447,1.579,3.447,3.392s-1.578,3.451-3.393,3.451c-1.871,0-3.449-1.521-3.449-3.451
		C195.059,23.552,196.637,22.032,198.453,22.032z"/>
	<path fill="#01256E" d="M225.76,55.832l7.369-16.314c1.697-4.211-1.521-4.62-4.563-4.62v-1.521h12.107v1.521
		c-2.809,0-3.977,2.807-5.09,5.204L225,62.617h-1.93l-10-23.158c-0.76-1.695-1.93-4.562-4.854-4.562v-1.521h15.203v1.521
		c-2.57,0-5.965,0.351-4.678,3.509L225.76,55.832z"/>
	<path fill="#01256E" d="M248.506,46.477c0,6.666,3.1,13.51,11.463,13.51c3.215,0,5.146-1.406,6.551-2.105l0.936,1.813l-7.662,3.625
		h-1.811c-1.463,0-6.377,0.762-11.113-4.445c-1.756-1.986-3.918-6.607-3.918-10.994c0-6.842,3.684-15.204,13.625-15.204
		c6.607,0,10.879,4.795,10.879,12.163v1.639H248.506z M259.443,44.43c1.287,0,2.924-0.82,2.924-3.393
		c0-3.742-2.867-6.315-6.141-6.315c-3.918,0-7.721,2.34-7.721,9.708H259.443z"/>
	<path fill="#01256E" d="M286.342,38.23c-0.584-0.293-1.287-0.233-2.164-0.233c-2.396,0-2.805,3.978-2.805,8.187v9.123
		c0,1.932,0,2.748,0.232,4.15c0.232,1.23,2.34,1.346,5.498,1.639v1.521h-15.676v-1.521c4.973-0.701,4.68-0.525,4.68-5.789V39.108
		c0-2.691-1.813-2.456-4.619-2.456v-1.521c3.156-0.117,7.076-0.818,9.766-2.456l0.119,0.118v5.262l3.039-3.157
		c1.402-1.462,2.223-2.223,3.217-2.223c0.525,0,1.229,0.059,2.164,1.754l1.697,2.983c0.174,0.352-0.119,0.585-0.469,0.818
		l-1.697,1.11c-0.35,0.235-0.586,0.118-0.877-0.058L286.342,38.23z"/>
	<path fill="#01256E" d="M295.23,55.188h1.52c-0.057,4.098,2.984,6.084,6.375,6.084c3.393,0,5.381-2.57,5.381-5.029
		c0-3.801-3.041-5.146-6.551-7.662c-4.736-3.449-6.666-4.385-6.666-8.244c0-4.912,4.561-7.661,9.355-7.661
		c1.873,0,4.213,0.118,6.9,0.995v5.848h-1.52c-0.176-1.988-1.93-4.796-5.262-4.796c-2.459,0-4.504,1.462-4.504,3.742
		c0,2.808,2.982,4.329,7.25,7.368c5.498,3.861,6.201,6.023,6.201,8.715c0,6.08-5.498,8.771-10.586,8.771
		c-3.217,0-5.73-0.525-7.895-1.578V55.188z"/>
	<path fill="#01256E" d="M327.686,32.793v22.514c0,5.264-0.291,5.088,4.678,5.789v1.521h-14.621v-1.521
		c4.971-0.701,4.678-0.525,4.678-5.789V39.108c0-2.691-1.811-2.456-4.678-2.456v-1.521c3.217-0.117,7.137-0.818,9.826-2.456
		L327.686,32.793z M324.41,22.032c1.871,0,3.449,1.579,3.449,3.392s-1.578,3.451-3.391,3.451c-1.873,0-3.451-1.521-3.451-3.451
		C321.018,23.552,322.596,22.032,324.41,22.032z"/>
	<path fill="#01256E" d="M354.586,36.301l-2.4,1.169h-6.492v15.38c0,2.281,0.119,6.961,3.979,6.961c1.58,0,3.1-0.117,4.504-0.701
		l0.41,1.518l-6.785,2.691c-4.094,0-7.369-1.229-7.369-9.24V37.47h-4.678v-2.688h4.678V28.64c1.053-1.111,2.223-2.164,3.686-3.275
		h1.576v9.417h8.893V36.301z"/>
	<path fill="#01256E" d="M380.666,39.576c1.756-4.211-1.463-4.679-4.504-4.679v-1.521h12.105v1.521
		c-2.865,0-3.975,2.866-5.088,5.264l-15.557,33.333c-1.109,2.281-1.928,3.742-4.209,3.742h-4.326c-0.469,0-0.645-0.584-0.645-1.109
		v-0.994c0-0.469,0-0.938,0.701-1.17l3.451-1.229c2.279-0.877,3.918-2.223,4.854-4.152l3.041-6.373l-9.824-22.75
		c-1.578-3.566-2.338-4.562-4.914-4.562v-1.521h15.266v1.521c-3.102,0-6.201-0.469-4.68,3.626l7.016,17.309L380.666,39.576z"/>
	<path fill="#01256E" d="M407.271,48.23c0-8.129,5.906-15.556,15.613-15.556c7.309,0,14.563,4.972,14.563,15.087
		c0,8.48-6.256,15.557-15.615,15.557C414.346,63.318,407.271,58.23,407.271,48.23z M431.656,48.055
		c0-6.491-2.748-13.333-9.59-13.333c-5.029,0-9.006,4.271-9.006,13.274c0,7.484,3.332,13.275,9.707,13.275
		C427.621,61.271,431.656,57.119,431.656,48.055z"/>
	<path fill="#01256E" d="M459.492,36.301l-2.398,1.169h-5.732v17.837c0,1.932,0,2.748,0.234,4.15
		c0.236,1.23,2.342,1.346,5.615,1.639v1.521h-15.789v-1.521c4.971-0.701,4.678-0.525,4.678-5.789V37.47h-4.037v-2.688h4.037v-4.738
		c0-3.742,2.105-5.847,4.211-7.367c1.168-0.878,4.15-2.808,5.789-3.042c0.762-0.116,1.756-0.233,2.457,0.292l2.746,2.341
		c0.354,0.35,0.061,0.759-0.115,0.935l-0.936,1.403c-0.293,0.293-0.76,0.176-1.111,0.059l-2.105-0.877
		c-1.344-0.526-2.514-1.053-3.451-1.053c-2.162,0-2.223,1.93-2.223,4.444v7.604h8.131V36.301z"/>
	<path fill="#01256E" d="M489.779,55.307c0,5.439-0.234,5.146,5.031,5.789v1.521h-15.734v-1.521c5.264-0.643,5.031-0.35,5.031-5.789
		V28.991c0-5.438,0.232-5.146-5.031-5.79v-1.52H494.4c9.709,0,14.504,3.859,14.504,10.877c0,8.421-7.604,12.98-16.551,12.457v-1.17
		c7.311,0.115,10.701-4.27,10.701-10.703c0-6.549-3.158-9.59-9.707-9.59h-3.568V55.307z"/>
	<path fill="#01256E" d="M518.141,46.477c0,6.666,3.1,13.51,11.463,13.51c3.217,0,5.145-1.406,6.551-2.105l0.934,1.813l-7.662,3.625
		h-1.811c-1.461,0-6.375,0.762-11.111-4.445c-1.756-1.986-3.918-6.607-3.918-10.994c0-6.842,3.684-15.204,13.625-15.204
		c6.609,0,10.877,4.795,10.877,12.163v1.639H518.141z M529.078,44.43c1.285,0,2.924-0.82,2.924-3.393
		c0-3.742-2.867-6.315-6.141-6.315c-3.92,0-7.721,2.34-7.721,9.708H529.078z"/>
	<path fill="#01256E" d="M551.008,55.307c0,5.264-0.293,5.088,4.676,5.789v1.521h-14.619v-1.521
		c4.969-0.701,4.676-0.525,4.676-5.789V39.108c0-2.691-1.811-2.456-4.676-2.456v-1.521c3.215-0.117,7.135-0.818,9.824-2.456
		l0.119,0.118v5.029c2.512-2.925,6.725-5.147,11.811-5.147c7.135,0,8.539,4.27,8.539,10.351v12.281c0,5.264-0.293,5.088,4.678,5.789
		v1.521h-14.619v-1.521c4.971-0.701,4.678-0.525,4.678-5.789v-10.76c0-3.684-0.234-8.832-6.432-8.832
		c-7.486,0-8.654,6.434-8.654,12.457V55.307z"/>
	<path fill="#01256E" d="M589.482,55.307c0,5.264-0.291,5.088,4.678,5.789v1.521h-14.617v-1.521
		c4.969-0.701,4.676-0.525,4.676-5.789V39.108c0-2.691-1.813-2.456-4.676-2.456v-1.521c3.215-0.117,7.133-0.818,9.824-2.456
		l0.115,0.118v5.029c2.516-2.925,6.725-5.147,11.814-5.147c7.133,0,8.535,4.27,8.535,10.351v12.281c0,5.264-0.293,5.088,4.682,5.789
		v1.521h-14.621v-1.521c4.971-0.701,4.678-0.525,4.678-5.789v-10.76c0-3.684-0.232-8.832-6.432-8.832
		c-7.486,0-8.656,6.434-8.656,12.457V55.307z"/>
	<path fill="#01256E" d="M619.307,55.188h1.52c-0.057,4.098,2.982,6.084,6.375,6.084c3.391,0,5.379-2.57,5.379-5.029
		c0-3.801-3.041-5.146-6.549-7.662c-4.738-3.449-6.668-4.385-6.668-8.244c0-4.912,4.563-7.661,9.355-7.661
		c1.873,0,4.213,0.118,6.902,0.995v5.848h-1.52c-0.176-1.988-1.932-4.796-5.264-4.796c-2.457,0-4.504,1.462-4.504,3.742
		c0,2.808,2.982,4.329,7.252,7.368c5.496,3.861,6.199,6.023,6.199,8.715c0,6.08-5.498,8.771-10.584,8.771
		c-3.217,0-5.732-0.525-7.895-1.578V55.188z"/>
	<path fill="#01256E" d="M664.979,39.576c1.754-4.211-1.465-4.679-4.506-4.679v-1.521h12.107v1.521c-2.867,0-3.977,2.866-5.09,5.264
		l-15.557,33.333c-1.109,2.281-1.928,3.742-4.209,3.742h-4.326c-0.469,0-0.645-0.584-0.645-1.109v-0.994c0-0.469,0-0.938,0.701-1.17
		l3.451-1.229c2.279-0.877,3.918-2.223,4.854-4.152l3.041-6.373l-9.824-22.75c-1.578-3.566-2.34-4.562-4.912-4.562v-1.521h15.262
		v1.521c-3.1,0-6.199-0.469-4.678,3.626l7.016,17.309L664.979,39.576z"/>
	<path fill="#01256E" d="M684.273,19.75v35.556c0,5.264-0.293,5.088,4.678,5.789v1.521h-14.619v-1.521
		c4.971-0.701,4.678-0.525,4.678-5.789V25.482c0-1.58-0.701-2.574-2.223-2.574h-2.455v-1.52c3.508-0.117,7.25-0.819,9.824-1.755
		L684.273,19.75z"/>
	<path fill="#01256E" d="M708.309,55.832l7.367-16.314c1.697-4.211-1.521-4.62-4.561-4.62v-1.521h12.104v1.521
		c-2.807,0-3.977,2.807-5.086,5.204l-10.586,22.516h-1.93l-10-23.158c-0.762-1.695-1.932-4.562-4.855-4.562v-1.521h15.207v1.521
		c-2.576,0-5.967,0.351-4.678,3.509L708.309,55.832z"/>
	<path fill="#01256E" d="M743.395,63.318c-0.877-1.053-1.346-2.865-1.346-4.617l-4.563,3.039c-1.346,0.877-2.982,1.578-4.793,1.578
		c-3.861,0-7.078-3.393-7.078-7.662c0-5.555,3.273-7.311,10.117-10l6.316-2.455c0-5.086-1.346-8.479-4.971-8.479
		c-3.568,0-4.797,3.216-6.199,5.321c-0.176,0.293-0.41,0.293-0.76,0.234l-1.988-0.469c-0.352-0.116-0.527-0.35-0.469-0.76
		l0.877-3.099c0.35-1.112,0.994-1.579,1.695-1.813c2.691-1.053,4.678-1.462,7.252-1.462c6.842,0,9.826,3.04,9.826,9.415v12.982
		c0,2.982,0.176,5.498,4.092,3.977l0.352,1.639L743.395,63.318z M742.049,45.424c-5.146,1.93-11.17,3.332-11.17,9.299
		c0,2.748,1.814,4.971,4.502,4.971c3.043,0,6.668-1.99,6.668-9.709V45.424z"/>
	<path fill="#01256E" d="M764.736,55.307c0,5.264-0.293,5.088,4.678,5.789v1.521h-14.619v-1.521
		c4.971-0.701,4.678-0.525,4.678-5.789V39.108c0-2.691-1.813-2.456-4.678-2.456v-1.521c3.217-0.117,7.133-0.818,9.824-2.456
		l0.117,0.118v5.029c2.514-2.925,6.725-5.147,11.814-5.147c7.133,0,8.535,4.27,8.535,10.351v12.281c0,5.264-0.291,5.088,4.68,5.789
		v1.521h-14.621v-1.521c4.971-0.701,4.68-0.525,4.68-5.789v-10.76c0-3.684-0.234-8.832-6.434-8.832
		c-7.484,0-8.654,6.434-8.654,12.457V55.307z"/>
	<path fill="#01256E" d="M803.215,32.793v22.514c0,5.264-0.293,5.088,4.678,5.789v1.521H793.27v-1.521
		c4.973-0.701,4.68-0.525,4.68-5.789V39.108c0-2.691-1.811-2.456-4.68-2.456v-1.521c3.217-0.117,7.137-0.818,9.826-2.456
		L803.215,32.793z M799.939,22.032c1.869,0,3.449,1.579,3.449,3.392s-1.58,3.451-3.393,3.451c-1.871,0-3.449-1.521-3.449-3.451
		C796.547,23.552,798.125,22.032,799.939,22.032z"/>
	<path fill="#01256E" d="M829.762,63.318c-0.877-1.053-1.344-2.865-1.344-4.617l-4.563,3.039c-1.344,0.877-2.98,1.578-4.795,1.578
		c-3.861,0-7.078-3.393-7.078-7.662c0-5.555,3.277-7.311,10.117-10l6.318-2.455c0-5.086-1.346-8.479-4.973-8.479
		c-3.564,0-4.795,3.216-6.199,5.321c-0.174,0.293-0.408,0.293-0.758,0.234l-1.99-0.469c-0.35-0.116-0.525-0.35-0.467-0.76
		l0.877-3.099c0.352-1.112,0.994-1.579,1.697-1.813c2.689-1.053,4.678-1.462,7.25-1.462c6.844,0,9.824,3.04,9.824,9.415v12.982
		c0,2.982,0.176,5.498,4.096,3.977l0.35,1.639L829.762,63.318z M828.418,45.424c-5.148,1.93-11.172,3.332-11.172,9.299
		c0,2.748,1.814,4.971,4.504,4.971c3.043,0,6.668-1.99,6.668-9.709V45.424z"/>
</g>
</svg>
