<svg version="1.1" id="Guides" xmlns="http://www.w3.org/2000/svg" xmlns:xlink="http://www.w3.org/1999/xlink" x="0px" y="0px" viewBox="0 0 375.6 80" style="enable-background:new 0 0 375.6 80;" xml:space="preserve">
 <style type="text/css">
  .st0{fill:#FFDB00;}
 </style>
 <g>
  <g>
   <path d="M135.5,58.3c4,0,8-1,11.7-3.7v-9.2H136v-8.2h20.8v21.7c-4.8,4.7-11.7,8.5-21.3,8.5c-17.3,0-28.3-12.2-28.3-27.4
			c0-15.2,11-27.4,27.5-27.4c8,0,15.1,3,19.9,8.5l-7,6.9c-3.1-3.9-7.6-6.2-13-6.2c-10.1,0-17.6,8.4-17.6,18.1
			C117,50,124.6,58.3,135.5,58.3z">
   </path>
   <path d="M182.7,67.4c-11.5,0-20.6-9.1-20.6-20.3c0-11.2,9.1-20.3,20.6-20.3s20.6,9.1,20.6,20.3C203.3,58.3,194.2,67.4,182.7,67.4z
			 M182.7,58.6c6.6,0,11.4-5.4,11.4-11.5c0-6.1-4.8-11.5-11.4-11.5s-11.4,5.4-11.4,11.5C171.3,53.2,176.1,58.6,182.7,58.6z">
   </path>
   <path d="M227.1,67.4c-11.5,0-20.6-9.1-20.6-20.3c0-11.2,9.1-20.3,20.6-20.3s20.6,9.1,20.6,20.3C247.7,58.3,238.6,67.4,227.1,67.4z
			 M227.1,58.6c6.6,0,11.4-5.4,11.4-11.5c0-6.1-4.8-11.5-11.4-11.5c-6.6,0-11.4,5.4-11.4,11.5C215.7,53.2,220.6,58.6,227.1,58.6z">
   </path>
   <path d="M283,13.4h9.2v53.3H283v-4c-2.9,3-7.1,4.8-12,4.8c-11.2,0-20-9.4-20-20.3c0-10.9,8.9-20.3,20-20.3c4.8,0,9.1,1.8,12,4.8
			V13.4z M271.6,35.6c-6.6,0-11.4,5.4-11.4,11.5c0,6.1,4.8,11.5,11.4,11.5S283,53.2,283,47.1C283,41,278.2,35.6,271.6,35.6z">
   </path>
   <path d="M330.6,66.6l-12.4-21.1h-10.5v21.1h-6.5V13.4h16.6c12.8,0,18.5,7.1,18.5,15.9c0,7.4-3.8,13.4-11.2,15.4L338,66.6H330.6z
			 M307.7,40.2h10.4c7.9,0,11.7-4.1,11.7-10.4c0-6.3-3.9-10.4-11.7-10.4h-10.4V40.2z">
   </path>
   <path d="M353.6,46.4L340,27.7h7.3l10,13.8l10-13.8h7.3L361,46.5l14.7,20.1h-7.4l-11.1-15.1l-10.9,15.1h-7.4L353.6,46.4z">
   </path>
  </g>
  <g>
   <g>
    <path class="st0" d="M66.4,24.6h-11v-11C55.4,6.1,49.3,0,41.8,0c-7.5,0-13.6,6.1-13.6,13.6v38.2h38.2c7.5,0,13.6-6.1,13.6-13.6
				S73.9,24.6,66.4,24.6">
    </path>
    <path class="st0" d="M28.2,55.3v11.1c0,7.5,6.1,13.6,13.6,13.6s13.6-6.1,13.6-13.6V55.3H28.2z">
    </path>
    <path class="st0" d="M24.6,24.6h-11C6.1,24.6,0,30.7,0,38.2s6.1,13.6,13.6,13.6h11V24.6z">
    </path>
   </g>
  </g>
 </g>
</svg>