<?xml version="1.0" encoding="utf-8"?>
<!-- Generator: Adobe Illustrator 16.0.0, SVG Export Plug-In . SVG Version: 6.00 Build 0)  -->
<!DOCTYPE svg PUBLIC "-//W3C//DTD SVG 1.1//EN" "http://www.w3.org/Graphics/SVG/1.1/DTD/svg11.dtd">
<svg version="1.1" id="Layer_1" xmlns="http://www.w3.org/2000/svg" xmlns:xlink="http://www.w3.org/1999/xlink" x="0px" y="0px"
	 width="430.5px" height="86.1px" viewBox="0 0 430.5 86.1" enable-background="new 0 0 430.5 86.1" xml:space="preserve">
<path d="M149.599,62.853v9.902h-40.898v-9.902h14.637V23.247h-14.637v-9.9h40.898v9.9h-14.637v39.604L149.599,62.853L149.599,62.853
	z"/>
<path d="M80.073,13.347H68.88L60.7,60.271l-9.471-43.48c-0.431-3.014-1.722-3.442-4.305-3.442h-6.027
	c-2.583,0-3.875,0.86-4.305,3.442l-9.471,43.48l-8.18-46.924H6.888l11.624,56.396c0.43,2.583,1.293,3.014,4.305,3.014h8.18
	c2.583,0,3.444-0.431,4.305-3.014l9.04-40.897l9.041,40.897c0.431,2.583,1.292,3.014,4.305,3.014h7.749
	c2.583,0,3.875-0.431,4.305-3.014L80.073,13.347z M86.1,86.1H0V0h86.1V86.1z"/>
<path d="M227.951,57.257c0,6.454,0.43,11.192,1.291,15.067h11.621c-0.428-3.016-0.859-8.613-0.859-15.929
	c-0.431-8.61-3.016-9.901-9.04-11.193c6.888-1.291,9.899-4.306,9.899-15.067c0-8.61-1.29-12.055-3.875-14.206
	c-1.721-1.722-4.731-2.582-9.469-2.582h-36.164v59.408h12.054V49.507h16.79c3.442,0,4.735,0.432,6.024,1.292
	C227.52,51.659,227.951,52.952,227.951,57.257 M203.411,40.036V23.679h19.373c2.583,0,3.442,0.428,3.874,0.859
	c0.861,0.86,1.723,2.151,1.723,7.317c0,5.167-0.861,6.89-1.723,7.749c-0.432,0.432-1.291,0.861-3.874,0.861L203.411,40.036z
	 M258.086,86.1h-86.1V0h86.1V86.1z"/>
<path d="M363.342,13.347v59.408h29.275c8.179,0,12.914-1.291,16.356-4.306c4.308-3.874,6.458-10.765,6.458-25.399
	s-2.15-21.525-6.458-25.399c-3.442-3.015-8.179-4.304-16.356-4.304H363.342z M403.381,43.05c0,12.915-0.863,15.929-3.446,17.65
	c-1.722,1.293-3.874,1.723-8.18,1.723h-16.357V23.247h16.357c4.306,0,6.458,0,8.18,1.723
	C402.518,27.121,403.381,30.135,403.381,43.05 M430.5,86.1h-86.1V0h86.1V86.1z"/>
<path d="M274.014,23.247v-9.9h51.015v18.94h-10.764v-9.04h-20.663v14.206h16.359v9.472h-16.359v15.928h21.095V52.521h10.763v20.233
	H274.23v-9.902h8.179V23.247H274.014z"/>
</svg>
