<?xml version="1.0" encoding="utf-8"?>
<!-- Generator: Adobe Illustrator 16.0.0, SVG Export Plug-In . SVG Version: 6.00 Build 0)  -->
<!DOCTYPE svg PUBLIC "-//W3C//DTD SVG 1.1//EN" "http://www.w3.org/Graphics/SVG/1.1/DTD/svg11.dtd">
<svg version="1.1" id="Layer_1" xmlns="http://www.w3.org/2000/svg" xmlns:xlink="http://www.w3.org/1999/xlink" x="0px" y="0px"
	 width="300px" height="300px" viewBox="0 0 300 300" enable-background="new 0 0 300 300" xml:space="preserve">
<title  id="simpleicons-linkedin-icon">LinkedIn icon</title>
<path d="M255.588,255.65h-44.426v-69.613c0-16.6-0.337-37.962-23.149-37.962c-23.163,0-26.7,18.063-26.7,36.737
	v70.838h-44.425V112.5h42.675v19.513h0.575c5.962-11.25,20.462-23.125,42.125-23.125c45.013,0,53.337,29.625,53.337,68.188v78.575
	H255.588z M66.712,92.913c-14.3,0-25.788-11.575-25.788-25.813c0-14.225,11.5-25.788,25.788-25.788c14.25,0,25.8,11.563,25.8,25.788
	C92.513,81.337,80.95,92.913,66.712,92.913z M88.987,255.65h-44.55V112.5h44.55V255.65z M277.813,0H22.138C9.9,0,0,9.675,0,21.612
	v256.775C0,290.338,9.9,300,22.138,300h255.638C290,300,300,290.338,300,278.388V21.612C300,9.675,290,0,277.775,0H277.813z"/>
</svg>
