<?xml version="1.0" encoding="utf-8"?>
<!-- Generator: Adobe Illustrator 16.0.0, SVG Export Plug-In . SVG Version: 6.00 Build 0)  -->
<!DOCTYPE svg PUBLIC "-//W3C//DTD SVG 1.1//EN" "http://www.w3.org/Graphics/SVG/1.1/DTD/svg11.dtd">
<svg version="1.1" id="Layer_1" xmlns="http://www.w3.org/2000/svg" xmlns:xlink="http://www.w3.org/1999/xlink" x="0px" y="0px"
	 width="645px" height="73px" viewBox="0 0 645 73" enable-background="new 0 0 645 73" xml:space="preserve">
<path fill="#3098F1" d="M52.386,6.35L52.386,6.35L42.55,18.994c-0.421,0.563-0.562,1.124-0.562,1.546c0,0.141,0,0.141,0.141,0.141
	c2.107,0.562,3.653,1.264,5.339,2.528h0.141l6.463-4.776c0,0,0,0,0.141,0l0.983,0.562h0.141l4.215-3.372c0,0,0.14-0.141,0-0.421
	C58.147,11.828,55.477,8.878,52.386,6.35C52.526,6.35,52.526,6.35,52.386,6.35"/>
<polygon points="285.807,59.215 278.454,59.215 278.454,25.054 281.181,20.31 277.03,20.31 265.643,46.168 260.305,46.168 
	249.156,20.31 245.123,20.31 247.733,25.054 247.733,59.215 240.378,59.215 240.378,13.785 253.663,13.785 262.796,35.491 
	263.746,35.491 272.998,13.785 285.807,13.785 "/>
<polygon points="643.231,59.215 635.878,59.215 635.878,25.054 638.486,20.31 634.454,20.31 623.067,46.168 617.729,46.168 
	606.579,20.31 602.429,20.31 605.157,25.054 605.157,59.215 597.803,59.215 597.803,13.785 611.088,13.785 620.221,35.491 
	621.169,35.491 630.422,13.785 643.231,13.785 "/>
<polygon points="526.396,59.098 513.468,59.098 495.913,20.665 492.117,20.665 494.963,25.171 494.963,59.098 487.608,59.098 
	487.608,13.547 500.538,13.547 518.093,52.215 521.889,52.215 519.042,47.473 519.042,13.547 526.396,13.547 "/>
<polygon points="127.421,20.31 114.018,20.31 114.018,59.215 106.664,59.215 106.664,20.31 93.142,20.31 93.142,13.785 
	127.421,13.785 "/>
<path d="M378.127,52.809c0,1.781-0.591,3.322-1.896,4.508c-1.305,1.31-2.846,1.898-4.508,1.898h-25.977
	c-1.778,0-3.319-0.592-4.509-1.898c-1.305-1.305-1.896-2.848-1.896-4.508V20.31c0-1.78,0.594-3.322,1.896-4.508
	c1.306-1.305,2.849-1.896,4.509-1.896h25.977c1.779,0,3.321,0.593,4.508,1.896c1.188,1.305,1.896,2.848,1.896,4.508v6.404h-7.472
	V20.31h-24.077v32.499h24.077v-6.404h7.354v6.404H378.127z"/>
<polygon points="420.195,13.785 420.195,33.356 396.235,33.356 396.235,13.785 388.645,13.785 388.645,59.215 396.235,59.215 
	396.235,39.762 420.195,39.762 420.195,59.215 427.667,59.215 427.667,13.785 "/>
<polygon points="169.49,13.785 169.49,33.356 145.292,33.356 145.292,13.785 137.938,13.785 137.938,59.215 145.292,59.215 
	145.292,39.762 169.49,39.762 169.49,59.215 176.843,59.215 176.843,13.785 "/>
<path d="M477.091,59.215h-7.355V46.168H445.66v13.047h-7.476V20.31c0-1.78,0.594-3.322,1.896-4.508
	c1.307-1.187,2.849-1.896,4.51-1.896h32.5V59.215L477.091,59.215z M469.734,39.762V20.31h-24.075v25.026l5.69-5.457h18.506v-0.117
	H469.734z"/>
<rect x="536.914" y="13.785" width="7.354" height="45.43"/>
<path d="M587.168,52.809c0,1.781-0.595,3.322-1.898,4.508c-1.305,1.31-2.847,1.898-4.507,1.898h-25.977v-6.406h25.024V39.762
	h-18.505c-1.776,0-3.317-0.594-4.506-1.896c-1.188-1.306-1.896-2.846-1.896-4.508V20.31c0-1.78,0.594-3.322,1.896-4.508
	c1.305-1.305,2.848-1.896,4.506-1.896h25.979v6.405h-25.028v13.047h18.506c1.778,0,3.32,0.593,4.507,1.898
	c1.188,1.304,1.898,2.846,1.898,4.508V52.809L587.168,52.809z"/>
<path d="M219.623,13.904L219.623,13.904h-24.79l0,0h-1.068c-1.778,0-3.321,0.593-4.507,1.897c-1.305,1.305-1.897,2.848-1.897,4.508
	l0,0v6.404v32.501h32.5v-6.405h-25.026V39.762h25.026v-6.405h-25.026V20.31h25.026v-6.405h-0.238V13.904L219.623,13.904z"/>
<path d="M328.588,13.904L328.588,13.904h-24.791l0,0h-1.068c-1.779,0-3.321,0.593-4.507,1.897c-1.305,1.305-1.897,2.848-1.897,4.508
	l0,0v6.404v32.501h32.5v-6.405h-25.146V39.762h25.027v-6.405h-25.027V20.31h25.027v-6.405h-0.117L328.588,13.904L328.588,13.904z"/>
<path fill="#3098F1" d="M60.255,23.037l-7.71,1.422c-0.474,0.12-0.829,0.357-0.948,0.476c0,0-0.119,0.119,0,0.119
	c0.593,1.541,0.948,3.32,0.948,4.982c0,0.116,0,0.116,0.119,0.116l4.033,0.831c0,0,0,0,0.119,0.119l0.119,0.83
	c0,0.12,0.118,0.12,0.118,0.12l2.491,0.354c0.118,0,0.118,0,0.118-0.119c0.474-2.609,0.83-5.338,0.593-7.829
	c0-0.474,0-0.827,0-1.303C60.61,23.156,60.61,23.037,60.255,23.037C60.374,23.037,60.374,23.037,60.255,23.037"/>
<path fill="#3098F1" d="M51.478,37.745c-0.592,1.778-1.424,3.44-2.372,5.222v0.115l1.542,3.916l0,0l0,0l-0.475,0.947v0.121
	l0.949,2.133l0.119,0.119h0.237c1.898-2.49,3.559-4.982,4.864-7.828v-0.119l-4.389-4.507c0,0-0.119-0.119-0.356-0.119
	C51.596,37.626,51.478,37.626,51.478,37.745"/>
<path fill="#3098F1" d="M44.124,48.896c-1.423,1.303-2.847,2.133-4.388,3.082c0,0-0.119,0-0.119,0.119l-1.898,5.692l0,0l-0.948,0.83
	c0,0,0,0-0.119,0.116l-1.067,3.56c0,0.117,0,0.117,0,0.354c0,0,0.118,0,0.355,0c2.847-1.064,5.456-2.607,7.947-4.742l0.119-0.117
	l0.593-8.422c0-0.121,0-0.355,0-0.477l-0.119-0.121C44.124,48.658,44.124,48.896,44.124,48.896"/>
<path fill="#3098F1" d="M1.66,43.797v0.117c0.356,2.135,0.83,4.27,1.423,6.168c0.831,2.016,1.78,3.795,2.847,5.457
	c0,0,0.119,0.117,0.119,0l13.997-4.51c0.475-0.117,0.83-0.354,1.067-0.83c0,0,0-0.117,0-0.354c-1.305-1.429-2.017-2.97-2.61-4.863
	l-0.118-0.119l-8.303-0.119c0,0,0,0-0.119,0l-0.831-1.307L9.015,43.32L1.66,43.797C1.779,43.797,1.779,43.797,1.66,43.797"/>
<path fill="#3098F1" d="M12.335,12.835c-1.779,2.018-3.321,4.034-4.745,6.288c-1.422,2.372-2.609,4.862-3.558,7.354
	c-0.119,0.357-0.119,0.474-0.356,0.831l0,0c0,0,0,0.118,0.119,0.118l13.047,8.303c0.355,0.593,0.949,0.593,1.068,0.593
	c0.118,0,0.118,0,0.118-0.118c0.474-2.491,1.423-4.863,2.61-6.999v-0.118l-4.745-7.472l0,0l0,0l0.593-1.779v-0.238l-4.032-6.762
	c0,0-0.119,0-0.119-0.117C12.335,12.835,12.335,12.835,12.335,12.835"/>
<path fill="#3098F1" d="M26.925,2.518l-0.119,0.117c0,0.12,0.593,16.962,0.593,16.962c0,0.594,0.356,0.949,0.475,1.305
	c0,0,0.119,0.119,0.356,0c1.898-1.422,4.033-2.49,6.168-3.084c0,0,0.119,0,0.119-0.118l2.491-8.896l0,0l1.304-0.593
	c0,0,0.119,0,0.119-0.118l1.898-6.998V0.618L40.21,0.5C35.82,0.026,31.314,0.738,26.925,2.518"/>
<path fill="#3098F1" d="M27.518,53.994l-6.168,4.865l0,0h-1.304h-0.119l-4.507,4.033v0.116c0,0,0,0.117,0.119,0.117
	c2.847,1.308,5.93,1.778,9.252,1.778c0,0,0.118,0,0.118-0.118l7.236-9.369c0,0,0.355-0.479,0.474-0.951v-0.112H32.5
	c-1.779,0.112-3.32,0-4.744-0.359C27.518,53.994,27.518,53.994,27.518,53.994"/>
</svg>
