<?xml version="1.0" encoding="utf-8"?>
<!-- Generator: Adobe Illustrator 16.0.0, SVG Export Plug-In . SVG Version: 6.00 Build 0)  -->
<!DOCTYPE svg PUBLIC "-//W3C//DTD SVG 1.1//EN" "http://www.w3.org/Graphics/SVG/1.1/DTD/svg11.dtd">
<svg version="1.1" id="Layer_1" xmlns="http://www.w3.org/2000/svg" xmlns:xlink="http://www.w3.org/1999/xlink" x="0px" y="0px"
	 width="1165px" height="190px" viewBox="0 0 1165 190" enable-background="new 0 0 1165 190" xml:space="preserve">
<path fill="#74B537" d="M959.955,39.184c-3.672-3.668-7.955-6.538-12.853-8.602c-4.891-2.063-10.088-3.097-15.598-3.097
	c-5.506,0-10.709,1.033-15.604,3.097c-4.895,2.064-9.174,4.934-12.848,8.602c-3.67,3.672-6.535,7.953-8.602,12.846
	c-2.063,4.897-3.095,10.094-3.095,15.601v79.148c0,5.51,0.949,10.713,2.861,15.604c1.916,4.895,4.596,9.184,8.033,12.848
	c3.44,3.677,7.646,6.543,12.617,8.605c4.969,2.063,10.512,3.1,16.633,3.1c5.51,0,10.707-1.035,15.598-3.1
	c4.896-2.063,9.181-4.932,12.853-8.605c3.67-3.664,6.539-7.953,8.604-12.848c2.063-4.891,3.094-10.094,3.094-15.604v-7.107
	c0-1.688-0.536-2.947-1.602-3.79c-1.07-0.835-2.221-1.261-3.439-1.261h-18.354c-1.377,0-2.563,0.576-3.559,1.727
	c-0.99,1.146-1.488,2.329-1.488,3.553v6.882c0,3.215-1.148,5.971-3.441,8.26c-2.293,2.295-5.045,3.44-8.26,3.44
	c-3.211,0-5.967-1.146-8.262-3.44c-2.289-2.289-3.439-5.045-3.439-8.26v-79.15c0-3.212,1.15-5.968,3.439-8.259
	c2.295-2.294,5.051-3.44,8.262-3.44c3.215,0,5.967,1.146,8.26,3.44c2.293,2.291,3.441,5.046,3.441,8.259v6.879
	c0,1.376,0.498,2.53,1.488,3.446c0.995,0.917,2.182,1.379,3.559,1.379h19.041c1.377,0,2.445-0.461,3.213-1.379
	c0.762-0.916,1.146-2.068,1.146-3.446v-6.879c0-5.507-1.031-10.704-3.095-15.601C966.494,47.137,963.625,42.857,959.955,39.184z"/>
<path fill="#74B537" d="M682.131,132.33c-0.92-2.141-2.184-4.359-3.785-6.655c-1.604-2.291-3.633-4.819-6.082-7.571l-35.33-41.063
	c-2.446-2.45-3.67-5.582-3.67-9.409c0-3.212,1.07-5.968,3.213-8.259c2.14-2.294,4.818-3.44,8.027-3.44
	c5.045,0,8.18,1.793,9.406,5.393c1.225,3.591,1.84,7.988,1.84,13.185c0,1.532,0.49,2.722,1.488,3.562
	c0.991,0.842,2.104,1.264,3.33,1.264h18.573c1.229,0,2.373-0.461,3.441-1.379c1.07-0.916,1.609-2.145,1.609-3.678v-6.647
	c0-5.507-1.027-10.704-3.099-15.601c-2.063-4.894-4.854-9.174-8.371-12.846c-3.522-3.668-7.725-6.538-12.623-8.602
	c-4.895-2.063-10.096-3.097-15.6-3.097c-5.502,0-10.707,1.033-15.598,3.097c-4.9,2.069-9.104,4.945-12.621,8.624
	c-3.52,3.679-6.309,7.962-8.372,12.866c-2.066,4.908-3.102,10.114-3.102,15.626c0,5.822,0.887,10.958,2.642,15.4
	c1.759,4.441,4.474,8.813,8.145,13.1l35.332,40.906c1.381,1.683,2.601,3.369,3.67,5.06c1.066,1.688,1.607,3.295,1.607,4.828
	c0,3.368-1.146,6.166-3.443,8.389c-2.293,2.226-5.045,3.33-8.26,3.33c-2.904,0-5.121-0.577-6.648-1.735
	c-1.53-1.158-2.641-2.664-3.33-4.515c-0.688-1.858-1.145-3.789-1.377-5.797c-0.229-2.004-0.459-3.937-0.688-5.787
	c-0.229-1.851-0.656-3.362-1.26-4.519c-0.615-1.157-1.688-1.739-3.216-1.739h-18.813c-0.921,0-1.947,0.389-3.1,1.149
	c-1.145,0.769-1.719,1.982-1.719,3.67v7.34c0,5.511,1.032,10.712,3.098,15.603c2.063,4.896,4.938,9.185,8.603,12.849
	c3.672,3.676,7.949,6.58,12.853,8.723c4.891,2.139,10.096,3.207,15.598,3.207c5.656,0,10.938-1.108,15.83-3.322
	c4.896-2.221,9.139-5.195,12.731-8.952c3.595-3.741,6.429-8.028,8.49-12.839c2.064-4.824,3.099-9.906,3.099-15.266
	c0-2.9-0.195-5.506-0.572-7.799C683.694,136.686,683.048,134.475,682.131,132.33z"/>
<path fill="#74B537" d="M850.062,29.78h-22.254c-1.682,0.148-2.903,1.297-3.67,3.441l-29.135,146.603
	c0,0.308-0.045,0.492-0.117,0.566c-0.078,0.08-0.115,0.194-0.115,0.346c0,1.227,0.459,2.18,1.379,2.867
	c0.921,0.692,1.908,1.026,2.982,1.026h20.189c2.137-0.299,3.438-1.368,3.896-3.211l2.752-15.596h25.467l2.984,15.596
	c0.152,1.074,0.727,1.882,1.721,2.414c0.992,0.537,1.871,0.797,2.636,0.797h19.272c3.363-0.146,5.047-1.75,5.047-4.81
	L853.498,33.221C852.735,31.382,851.588,30.233,850.062,29.78z M831.25,137.836l7.57-40.604l7.567,40.604H831.25z"/>
<path fill="#74B537" d="M778.826,31.039c-1.146-0.835-2.256-1.258-3.322-1.258h-18.816c-1.526,0-2.674,0.453-3.438,1.371
	c-0.767,0.921-1.148,1.99-1.148,3.213v66.762l-23.634-67.681v-0.453c-0.459-0.92-1.184-1.686-2.178-2.299
	c-0.994-0.61-1.875-0.914-2.635-0.914h-18.813c-1.537,0-2.68,0.453-3.445,1.371c-0.768,0.921-1.147,1.99-1.147,3.213V180.05
	c0,3.063,1.529,4.583,4.594,4.583h18.813c3.358,0,5.043-1.521,5.043-4.583v-65.845l22.713,65.383
	c0.61,1.535,1.186,2.753,1.725,3.676c0.535,0.92,1.721,1.369,3.553,1.369h18.814c3.361,0,5.045-1.521,5.045-4.583V34.364
	C780.548,32.993,779.974,31.883,778.826,31.039z"/>
<path fill="#74B537" d="M1036.351,102.971l30.51-67.455c0-0.311,0.037-0.574,0.119-0.806c0.074-0.231,0.115-0.419,0.115-0.574
	c0-0.149,0.072-0.304,0.225-0.459c0-1.221-0.381-2.18-1.147-2.87c-0.762-0.683-1.684-1.027-2.752-1.027h-22.252
	c-1.988,0-3.289,0.683-3.898,2.064l-21.563,47.715V34.364c0-1.223-0.502-2.292-1.496-3.213c-0.994-0.918-2.023-1.371-3.096-1.371
	h-19.734c-1.221,0-2.213,0.492-2.977,1.486c-0.771,1-1.15,2.03-1.15,3.098V180.05c0,3.063,1.375,4.583,4.127,4.583h19.734
	c1.524,0,2.676-0.449,3.438-1.369c0.767-0.923,1.15-1.99,1.15-3.214v-31.205l5.039-11.235l20.19,44.964
	c0.466,0.915,1.115,1.491,1.951,1.727c0.838,0.229,1.492,0.335,1.949,0.335h20.418c1.687,0,3.022-0.449,4.018-1.369
	c0.99-0.923,1.492-1.99,1.492-3.214c0,0.156-0.156-0.536-0.461-2.063L1036.351,102.971z"/>
<path fill="#74B537" d="M1159.548,132.33c-0.922-2.141-2.182-4.359-3.787-6.655c-1.604-2.291-3.635-4.819-6.08-7.571l-35.334-41.063
	c-2.442-2.45-3.664-5.582-3.664-9.409c0-3.212,1.066-5.968,3.211-8.259c2.142-2.294,4.816-3.44,8.029-3.44
	c5.043,0,8.181,1.793,9.404,5.393c1.219,3.591,1.838,7.988,1.838,13.185c0,1.532,0.498,2.722,1.49,3.562
	c0.992,0.842,2.104,1.264,3.322,1.264h18.586c1.223,0,2.371-0.461,3.442-1.379c1.068-0.916,1.605-2.145,1.605-3.678v-6.647
	c0-5.507-1.031-10.704-3.099-15.601c-2.063-4.894-4.858-9.174-8.375-12.846c-3.521-3.668-7.729-6.538-12.618-8.602
	c-4.896-2.063-10.093-3.097-15.601-3.097s-10.709,1.033-15.604,3.097c-4.898,2.069-9.104,4.945-12.617,8.624
	c-3.521,3.679-6.309,7.962-8.375,12.866c-2.063,4.908-3.094,10.114-3.094,15.626c0,5.822,0.879,10.958,2.635,15.4
	c1.762,4.441,4.479,8.813,8.146,13.1l35.329,40.906c1.373,1.683,2.601,3.369,3.673,5.06c1.063,1.688,1.606,3.295,1.606,4.828
	c0,3.368-1.151,6.166-3.442,8.389c-2.291,2.226-5.048,3.33-8.259,3.33c-2.903,0-5.133-0.577-6.657-1.735
	c-1.529-1.158-2.634-2.664-3.324-4.515c-0.688-1.858-1.146-3.789-1.379-5.797c-0.229-2.004-0.457-3.937-0.687-5.787
	s-0.651-3.362-1.262-4.519c-0.613-1.157-1.688-1.739-3.215-1.739h-18.812c-0.914,0-1.947,0.389-3.096,1.149
	c-1.148,0.769-1.725,1.982-1.725,3.67v7.34c0,5.511,1.03,10.712,3.098,15.603c2.066,4.896,4.936,9.185,8.605,12.849
	c3.67,3.676,7.946,6.58,12.846,8.723c4.895,2.139,10.096,3.207,15.604,3.207c5.658,0,10.933-1.108,15.83-3.322
	c4.893-2.221,9.137-5.195,12.729-8.952c3.592-3.741,6.43-8.028,8.491-12.839c2.064-4.824,3.101-9.906,3.101-15.266
	c0-2.9-0.197-5.506-0.574-7.799C1161.115,136.686,1160.465,134.475,1159.548,132.33z"/>
<path fill="#74B537" d="M437.429,28.356c-1.032-0.63-1.933-0.948-2.723-0.948h-19.404c-1.581,0-2.766,0.477-3.554,1.421
	c-0.792,0.945-1.186,2.053-1.186,3.313v150.286c0,3.156,1.576,4.73,4.737,4.73h19.404c3.47,0,5.205-1.574,5.205-4.73v-67.926
	l23.434,67.451c0.623,1.58,1.217,2.842,1.771,3.785c0.551,0.947,1.776,1.42,3.669,1.42h19.406c3.471,0,5.205-1.574,5.205-4.73
	V32.142c0-1.418-0.594-2.561-1.771-3.432c-1.186-0.865-2.332-1.302-3.435-1.302h-19.406c-1.575,0-2.764,0.477-3.552,1.421
	c-0.791,0.945-1.18,2.053-1.18,3.313v68.87l-24.381-69.813v-0.473C439.201,29.774,438.455,28.989,437.429,28.356z"/>
<path fill="#74B537" d="M389.031,187.16c3.468,0,5.206-1.576,5.206-4.73V32.142c0-1.418-0.594-2.561-1.776-3.432
	c-1.187-0.865-2.331-1.302-3.43-1.302h-19.409c-1.58,0-2.762,0.477-3.548,1.421c-0.794,0.945-1.188,2.053-1.188,3.313v150.286
	c0,3.156,1.576,4.73,4.733,4.73h19.41L389.031,187.16L389.031,187.16z"/>
<path fill="#74B537" d="M323.234,187.16h19.408c3.469,0,5.207-1.576,5.207-4.73V32.142c0-1.418-0.594-2.561-1.774-3.432
	c-1.186-0.865-2.327-1.302-3.433-1.302h-24.143c-0.792,0-1.655,0.237-2.603,0.709c-0.945,0.475-1.58,1.343-1.896,2.606
	l-20.825,75.021l-20.829-75.021c-0.471-2.208-1.813-3.315-4.019-3.315h-25.089c-1.579,0-2.761,0.477-3.553,1.421
	c-0.79,0.945-1.183,2.053-1.183,3.313v150.286c0,3.156,1.575,4.73,4.735,4.73h19.406c3.467,0,5.204-1.574,5.204-4.73V109.77
	l12.547,54.437c0.315,0.946,0.747,1.772,1.302,2.483c0.55,0.709,1.379,1.064,2.484,1.064h18.225c0.946,0,1.691-0.355,2.247-1.064
	c0.549-0.711,0.983-1.537,1.302-2.483l12.542-53.728v71.949C318.5,185.584,320.077,187.16,323.234,187.16z"/>
<path fill="#74B537" d="M514.703,187.16h36.209c5.68,0,11.043-1.064,16.093-3.192c5.047-2.132,9.466-5.091,13.254-8.877
	c3.789-3.786,6.746-8.198,8.875-13.253c2.131-5.049,3.195-10.412,3.195-16.094V68.825c0-6.309-1.064-12.03-3.195-17.16
	c-2.129-5.123-5.086-9.464-8.875-13.016c-3.788-3.55-8.207-6.305-13.254-8.281c-5.05-1.974-10.413-2.96-16.093-2.96h-36.209
	c-3.475,0-5.207,1.737-5.207,5.207v150.283c0,2.059,0.594,3.274,1.772,3.67C512.453,186.967,513.595,187.16,514.703,187.16z
	 M538.842,56.757h12.069c3.313,0,6.15,1.182,8.521,3.548c2.366,2.369,3.552,5.208,3.552,8.521v76.918
	c0,3.313-1.186,6.15-3.552,8.521c-2.368,2.363-5.206,3.549-8.521,3.549h-12.069V56.757L538.842,56.757z"/>
<path fill="#74B537" d="M129.877,49.94c-6.506-10.259-14.868-16.406-24.217-19.255c-7.286-13.309-19.547-18.449-24.664-20.367
	c0.25-3.868-2.343-6.438-6.318-7.268c-5.755-1.202-8.607,2.924-7.6,7.84c0.843,4.125,3.831,7.016,8.037,6.827
	c1.304-0.059,4.063-2.034,5.032-4.35c7.859,3.998,14.387,8.785,15.941,15.541c-9.081-0.684-18.751,1.187-28.347,5.005
	C58.2,37.71,49.437,44.833,43.669,54.748c-6.946-2.253-14.804-2.533-23.624-1.493c0.699-4.663-2.81-6.843-5.112-7.317
	c-3.071-0.631-6.725,0.536-9.374,6.198c-1.906,4.076-1.068,9.583,2.831,10.74c7.195,2.135,10.867-5.417,10.991-5.872
	c5.919-0.342,14.159,0.229,20.867,4.87c-7.156,18.533-4.649,44.458,17.724,75.347c1.746,2.152,3.765,4.709,4.84,5.648
	c0,0-6.452-1.205-9.504-3.031c-10.154,5.502-24.389,12.746-45.736,36.342c-5.343,5.904-8.414,9.187,4.217,10.121
	c15.182,1.125,90.532,1.688,119.491-2.529c21.234-3.094,24.179-24.461,24.179-24.461C164.46,113.764,142.081,69.185,129.877,49.94z
	 M86.219,96.098c-3.31,1.527-10.041,0.995-11.435-4.875c-1.354-5.711,0.495-10.054,5.454-11.508
	c4.378-1.283,10.13,0.186,11.749,5.542C93.608,90.615,91.392,93.71,86.219,96.098z M116.579,103.5
	c-4.71,2.143-7.856,0.666-9.762-1.264l13.303-5.008C121.635,101.18,120.1,101.9,116.579,103.5z M124.942,79.479
	c-3.3,1.174-6.636,0.92-8.394-4.025s0.166-8.69,3.425-9.944c3.27-1.257,7.435-0.684,9.192,4.262
	C130.922,74.716,128.241,78.305,124.942,79.479z"/>
</svg>
