<?xml version="1.0" encoding="utf-8"?>
<!-- Generator: Adobe Illustrator 16.0.0, SVG Export Plug-In . SVG Version: 6.00 Build 0)  -->
<!DOCTYPE svg PUBLIC "-//W3C//DTD SVG 1.1//EN" "http://www.w3.org/Graphics/SVG/1.1/DTD/svg11.dtd">
<svg version="1.1" id="Layer_1" xmlns="http://www.w3.org/2000/svg" xmlns:xlink="http://www.w3.org/1999/xlink" x="0px" y="0px"
	 width="300px" height="300px" viewBox="0 0 300 300" enable-background="new 0 0 300 300" xml:space="preserve">
<title  id="simpleicons-github-icon">GitHub icon</title>
<path d="M150,3.712c-82.875,0-150,67.163-150,150C0,220,42.975,276.213,102.563,296.025
	c7.5,1.412,10.25-3.227,10.25-7.213c0-3.563-0.125-13-0.188-25.5C70.9,272.361,62.1,243.188,62.1,243.188
	c-6.825-17.313-16.688-21.938-16.688-21.938c-13.587-9.3,1.05-9.111,1.05-9.111c15.063,1.049,22.975,15.449,22.975,15.449
	c13.375,22.938,35.112,16.313,43.688,12.475c1.35-9.699,5.212-16.313,9.5-20.063C89.313,216.25,54.3,203.35,54.3,145.875
	c0-16.375,5.813-29.75,15.438-40.25c-1.688-3.788-6.75-19.038,1.313-39.7c0,0,12.563-4.025,41.25,15.375
	c12-3.337,24.75-4.987,37.5-5.063c12.75,0.075,25.5,1.725,37.5,5.063c28.5-19.4,41.063-15.375,41.063-15.375
	c8.063,20.663,3,35.913,1.5,39.7c9.563,10.5,15.375,23.875,15.375,40.25c0,57.625-35.063,70.313-68.438,74
	c5.25,4.5,10.125,13.7,10.125,27.75c0,20.075-0.188,36.2-0.188,41.075c0,3.938,2.625,8.625,10.313,7.125
	C257.063,276.15,300,219.9,300,153.713C300,70.875,232.838,3.712,150,3.712"/>
</svg>
