<?xml version="1.0" encoding="utf-8"?>
<!-- Generator: Adobe Illustrator 16.0.0, SVG Export Plug-In . SVG Version: 6.00 Build 0)  -->
<!DOCTYPE svg PUBLIC "-//W3C//DTD SVG 1.1//EN" "http://www.w3.org/Graphics/SVG/1.1/DTD/svg11.dtd">
<svg version="1.1" id="Layer_1" xmlns="http://www.w3.org/2000/svg" xmlns:xlink="http://www.w3.org/1999/xlink" x="0px" y="0px"
	 width="300px" height="300px" viewBox="0 0 300 300" enable-background="new 0 0 300 300" xml:space="preserve">
<title  id="simpleicons-twitter-icon">Twitter icon</title>
<path d="M299.425,57.112c-11.063,4.863-22.875,8.175-35.313,9.688c12.676-7.637,22.426-19.675,27.039-34.037
	c-11.889,6.938-25.063,11.987-39.088,14.8c-11.201-11.987-27.162-19.487-44.889-19.487c-33.962,0-61.5,27.537-61.5,61.462
	c0,4.875,0.563,9.563,1.588,14.05C96.138,101.175,50.825,76.625,20.5,39.513c-5.337,9.025-8.325,19.512-8.325,30.938
	c0,21.375,10.875,40.162,27.35,51.2c-10.087-0.325-19.575-3.1-27.85-7.7v0.762c0,29.813,21.163,54.676,49.325,60.337
	c-5.163,1.388-10.612,2.138-16.2,2.138c-3.925,0-7.688-0.375-11.45-1.074c7.887,24.412,30.563,42.213,57.55,42.713
	c-21,16.486-47.612,26.313-76.275,26.313c-4.875,0-9.737-0.287-14.625-0.838c27.362,17.426,59.6,27.612,94.462,27.612
	c113.175,0,174.988-93.699,174.988-174.825c0-2.612,0-5.25-0.188-7.875c12.014-8.612,22.5-19.5,30.75-31.85L299.425,57.112
	L299.425,57.112z"/>
</svg>
